<svg xmlns="http://www.w3.org/2000/svg" width="22.096" height="22.096" viewBox="0 0 22.096 22.096"><defs><style>.a{fill:#fff;}</style></defs><path class="a" d="M11.048,22.1a11,11,0,0,1-5.436-1.438,2.429,2.429,0,0,0-1.223-.469,1.341,1.341,0,0,0-.423.07l-2.232.664a.833.833,0,0,1-.25.039A.685.685,0,0,1,.932,20.7a.715.715,0,0,1-.1-.638l.741-2.479a1.155,1.155,0,0,0-.078-1A11.674,11.674,0,0,1,0,11.065,11.222,11.222,0,0,1,3.128,3.35,10.926,10.926,0,0,1,11.07,0a10.9,10.9,0,0,1,7.866,3.308,11.112,11.112,0,0,1,2.319,3.516,10.926,10.926,0,0,1,.84,4.207,11.2,11.2,0,0,1-.956,4.609,10.6,10.6,0,0,1-2.513,3.484A11.319,11.319,0,0,1,11.048,22.1ZM16.119,9.66a1.416,1.416,0,1,0,1.414,1.416A1.417,1.417,0,0,0,16.119,9.66ZM11,9.66a1.4,1.4,0,0,0-1.393,1.405,1.414,1.414,0,1,0,1.414-1.4H11Zm-5.072,0a1.416,1.416,0,1,0,1.414,1.416A1.417,1.417,0,0,0,5.933,9.66Z" transform="translate(0 0)"/></svg>